<?xml version="1.0" encoding="UTF-8" standalone="no"?><!DOCTYPE svg PUBLIC "-//W3C//DTD SVG 1.1//EN" "http://www.w3.org/Graphics/SVG/1.1/DTD/svg11.dtd"><svg width="100%" height="100%" viewBox="0 0 113 113" version="1.1" xmlns="http://www.w3.org/2000/svg" xmlns:xlink="http://www.w3.org/1999/xlink" xml:space="preserve" xmlnsserif="http://www.serif.com/" style="fill-rule:evenodd;clip-rule:evenodd;stroke-linejoin:round;stroke-miterlimit:1.41421;"><path d="M55.946,0.335c30.74,0 55.698,24.958 55.698,55.699c0,30.74 -24.958,55.698 -55.698,55.698c-30.741,0 -55.699,-24.958 -55.699,-55.698c0,-30.741 24.958,-55.699 55.699,-55.699Zm9.088,89.035c-1.291,-0.426 -2.943,-1.901 -4.273,-3.455c-1.724,-2.017 -2.054,-4.649 -2.063,-7.056c-0.014,-3.65 -0.355,-7.429 0.048,-11.621c0.309,-3.233 6.433,-6.663 14.408,-7.935c-3.219,-0.637 -13.229,2.212 -15.356,3.484c0.025,-3.179 1.245,-19.969 -9.021,-27.855c3.142,4.707 5.188,10.584 5.518,18.189c-2.146,-1.272 -7.359,-5.603 -17.321,-1.272c4.544,-1.486 15.022,-1.66 17.321,5.078c0.189,7.803 1.021,16.201 -1.66,23.839c-1.482,4.213 -4.825,6.695 -10.594,8.604l22.993,0Zm-2.457,-24.599c-0.036,3.32 1.77,7.664 7.626,6.205c0,-0.002 0.791,-7.807 -7.626,-6.205Zm6.62,-2.413c0.068,3.112 1.892,7.124 7.331,5.576c-0.006,0 0.496,-7.334 -7.331,-5.576Zm-31.937,3.214c0,0 5.532,0.166 3.984,-5.678c-2.345,0.144 -5.306,1.632 -3.984,5.678Zm10.697,-0.552c0,0 5.535,0.058 3.875,-5.752c-2.339,0.184 -5.273,1.724 -3.875,5.752Zm-4.152,-4.005c0,0 7.331,0.519 5.603,-7.319c-3.123,0.062 -7.137,1.876 -5.603,7.319Zm30.177,-2.137c2.737,2.259 7.555,3.673 10.272,-2.175c0.002,0 -5.954,-5.894 -10.272,2.175Zm-13.474,1.077c3.044,-0.658 6.64,-3.209 4.086,-8.257c0,0.01 -7.296,0.909 -4.086,8.257Zm-18.029,-7.604c-3.113,-0.143 -7.236,1.405 -6.062,6.938c-0.008,0 7.284,0.996 6.062,-6.938Zm25.431,6.238c3.044,-0.658 6.64,-3.208 4.086,-8.257c0,0 -7.296,0.907 -4.086,8.257Zm-40.273,-2.056c0,0 6.122,3.527 7.907,-3.98c-2.719,-1.254 -6.95,-1.37 -7.907,3.98Zm47.48,-3.219c2.579,0.015 5.939,-1.405 4.773,-5.943c0.008,-0.002 -6.051,-0.583 -4.773,5.943Zm-13.391,-2.359c4.462,-0.766 9.832,-4.244 6.433,-11.731c0,0 -10.639,0.851 -6.433,11.731Zm-11.654,-1.169c1.523,-3.206 1.718,-8.223 -4.615,-9.431c0.002,0 -4.263,7.215 4.615,9.431Zm-8.94,-1.211c-0.338,-4.18 -3.113,-9.424 -10.297,-6.913c0,0 -0.093,9.897 10.297,6.913Zm34.497,-8.22c0,0 -7.296,0.898 -4.085,8.257c3.048,-0.658 6.636,-3.208 4.085,-8.257Zm-18.991,2.328c3.469,-0.751 7.559,-3.662 4.648,-9.415c0,0 -8.315,1.029 -4.648,9.415Zm-9.372,-5.364c-2.015,-2.924 -6.26,-5.603 -10.475,-0.722c0,-0.002 4.113,7.298 10.475,0.722Zm21.63,-6.317c0,0 -5.535,0.098 -3.711,5.86c2.333,-0.253 5.223,-1.878 3.711,-5.86Zm-10.65,-8.041c0,0 -10.648,0.851 -6.433,11.731c4.451,-0.764 9.822,-4.244 6.433,-11.731Zm-9.861,10.432c1.496,-3.929 1.245,-9.868 -6.336,-10.696c-0.002,0 -4.351,8.915 6.336,10.696Z" style="fill:#fff;"/></svg>
