<?xml version="1.0" encoding="utf-8"?>
<!-- Generator: Adobe Illustrator 25.4.1, SVG Export Plug-In . SVG Version: 6.00 Build 0)  -->
<svg version="1.1" id="Layer_1" xmlns="http://www.w3.org/2000/svg" xmlns:xlink="http://www.w3.org/1999/xlink" x="0px" y="0px"
	 viewBox="0 0 378 72" style="enable-background:new 0 0 378 72;" xml:space="preserve">
<style type="text/css">
	.st0{fill:#002E5D;}
</style>
<g>
	<g>
		<g>
			<g>
				<g>
					<path class="st0" d="M135.5,31.2v-6.7c0-0.5-0.1-0.9-0.1-0.9s0.5,0.1,0.9,0.1h5c3.8,0,6.1,0.6,6.1,4.1c0,2.3-1.4,4.3-5.9,4.3
						h-5.2c-0.5,0-0.9,0.1-0.9,0.1S135.5,31.7,135.5,31.2 M135.5,46.6v-7.7c0-0.5-0.1-0.9-0.1-0.9s0.5,0.1,0.9,0.1h4.3
						c3.4,0,7.6,0,7.6,4.7c0,3.5-3,4.7-7,4.7h-4.8c-0.5,0-0.9,0.1-0.9,0.1S135.5,47,135.5,46.6 M123.3,19.5v32.2
						c0,1,0.1,1.4-0.7,1.9c-0.7,0.4-1.5,0.5-2.7,0.7l0,0c-0.1,0-0.1,0.5,0,0.5H146c11,0,15.6-4.4,15.6-11.2c0-5-2.3-8.1-7-9.3
						c-0.1,0-0.1-0.1,0-0.1c3-0.9,5.7-3.1,5.7-8.3c0-7.1-4.8-9.5-15.3-9.5h-25c-0.1,0-0.1,0.5,0,0.5l0,0c1.2,0.2,1.9,0.3,2.7,0.7
						C123.4,18.1,123.3,18.5,123.3,19.5"/>
				</g>
				<g>
					<path class="st0" d="M254.7,19.5c0-1-0.1-1.4,0.7-1.9c0.7-0.5,1.5-0.5,2.7-0.7l0,0c0.1,0,0.1-0.5,0-0.5h-19.2
						c-0.1,0-0.1,0.4,0,0.5l0,0c1.2,0.2,1.8,0.3,2.5,0.7c0.7,0.5,0.7,0.8,0.7,1.9v19.4c0,4.4-2.5,7.8-7.6,7.8c-5,0-7.6-3.4-7.6-7.8
						V19.5c0-1-0.1-1.4,0.7-1.9c0.7-0.4,1.3-0.6,2.5-0.7l0,0c0.1,0,0.1-0.5,0-0.5H212c-0.1,0-0.1,0.5,0,0.5l0,0
						c0.7,0,1.1,0.1,1.5,0.4c0.6,0.5,0.7,1.1,0.7,2.2v19c0,9.2,5,17,20.3,17c15.2,0,20.3-7.8,20.3-17L254.7,19.5L254.7,19.5z"/>
				</g>
				<g>
					<path class="st0" d="M196.4,54.9c0.1,0,0.1-0.5,0-0.5l0,0c-1.2-0.2-1.9-0.3-2.7-0.7c-0.7-0.5-0.7-0.8-0.7-1.9V39.5l13.3-19.7
						c0.7-1.1,1.2-1.6,1.8-2.2c0.1-0.1,0.3-0.2,0.5-0.3c0.5-0.3,0.8-0.3,1.4-0.4l0,0c0.1,0,0.2-0.5,0-0.5h-17.9
						c-0.1,0-0.1,0.5,0,0.5l0,0c0.9,0,1.9,0,1.8,1.3c-0.1,1.2-5.3,8.7-7.1,11.5c-0.3,0.4-0.5,0.8-0.6,1.3c-0.1-0.5-0.4-1-0.6-1.3
						c-2.6-3.8-7-10-7.1-11.5c-0.1-1.3,0.9-1.3,1.8-1.3l0,0c0.1,0,0.2-0.5,0-0.5h-18.8c-0.1,0-0.1,0.4,0,0.5l0,0
						c0.8,0.1,1.2,0,2.2,0.5c0.1,0.1,0.4,0.2,0.5,0.3c0.6,0.5,1,1,1.7,2.1l13.3,19.7v12.3c0,1,0.1,1.4-0.7,1.9
						c-0.7,0.4-1.5,0.5-2.7,0.7l0,0c-0.1,0-0.1,0.5,0,0.5H196.4z"/>
				</g>
			</g>
		</g>
	</g>
</g>
</svg>
