<svg width="194" height="34" viewBox="0 0 194 34" fill="none" xmlns="http://www.w3.org/2000/svg">
<path d="M23.4706 24.1932L32.0689 33.083H23.8349L9.01867 17.7809L13.0021 13.6518L0.226074 0.438599H21.1146L33.7691 13.5061L28.8142 18.6553L23.592 24.0718L23.4706 24.1932Z" fill="#146BFE"/>
<path d="M7.80431 19.0682L21.3575 33.083H11.4234L2.82507 24.1932L7.80431 19.0682Z" fill="#146BFE"/>
<path d="M150.429 9.74118C149.749 8.74533 148.826 7.9438 147.587 7.38515C146.348 6.87508 144.891 6.55933 143.191 6.55933H135.88V26.9135H137.362V20.234H143.167C144.891 20.234 146.324 19.9668 147.563 19.4082C148.802 18.8495 149.725 18.0723 150.405 17.0522C151.085 16.0077 151.401 14.8176 151.401 13.4088C151.449 12.0243 151.109 10.7613 150.429 9.74118ZM148.194 17.5136C147.077 18.4852 145.401 18.971 143.191 18.971H137.386V7.9438H143.191C145.401 7.9438 147.029 8.42957 148.194 9.40113C149.312 10.3727 149.919 11.7086 149.919 13.506C149.919 15.2062 149.36 16.5421 148.194 17.5136Z" fill="white"/>
<path d="M164.298 19.8211C164.638 19.6997 164.978 19.6025 165.27 19.4568C166.508 18.8981 167.431 18.1209 168.111 17.1007C168.791 16.1049 169.107 14.8661 169.107 13.4574C169.107 12.0486 168.767 10.7613 168.111 9.74118C167.431 8.74533 166.508 7.9438 165.27 7.38515C164.031 6.82651 162.573 6.55933 160.873 6.55933H153.562V26.9135H155.044V20.234H160.849C161.553 20.234 162.185 20.1611 162.792 20.0883L167.674 26.9135H169.35L164.298 19.8211ZM160.873 18.971H155.068V7.89522H160.873C163.084 7.89522 164.711 8.381 165.877 9.35256C166.994 10.3241 167.601 11.66 167.601 13.4574C167.601 15.2062 167.043 16.5421 165.877 17.5136C164.759 18.4852 163.084 18.971 160.873 18.971Z" fill="white"/>
<path d="M192.449 12.6317C191.939 11.3686 191.186 10.2756 190.214 9.35266C189.243 8.42968 188.125 7.70101 186.862 7.19094C185.551 6.68087 184.166 6.4137 182.66 6.4137C181.13 6.4137 179.746 6.68087 178.458 7.19094C177.147 7.70101 176.03 8.42968 175.058 9.40124C174.086 10.3242 173.333 11.4415 172.823 12.6802C172.313 13.9433 172.046 15.2792 172.046 16.7851C172.046 18.291 172.313 19.6269 172.823 20.8899C173.333 22.1529 174.086 23.2459 175.058 24.1689C176.03 25.0919 177.147 25.8449 178.458 26.3792C179.721 26.8893 181.155 27.1565 182.66 27.1565C184.191 27.1565 185.575 26.8893 186.862 26.3792C188.174 25.8691 189.291 25.1405 190.214 24.2175C191.186 23.2945 191.89 22.2015 192.449 20.9385C192.959 19.6755 193.226 18.3396 193.226 16.8094C193.226 15.2792 192.983 13.8947 192.449 12.6317ZM191.04 20.307C190.603 21.4 189.947 22.3472 189.146 23.1731C188.344 23.9989 187.348 24.6304 186.279 25.0676C185.186 25.5048 183.972 25.7477 182.66 25.7477C181.349 25.7477 180.159 25.5291 179.041 25.0676C177.924 24.6304 176.953 23.9746 176.127 23.1731C175.301 22.3472 174.669 21.4243 174.184 20.307C173.746 19.214 173.503 18.0724 173.503 16.7608C173.503 15.4492 173.722 14.259 174.184 13.1903C174.621 12.0973 175.277 11.1743 176.127 10.3485C176.953 9.52268 177.924 8.89117 179.041 8.45397C180.159 8.01677 181.349 7.77388 182.66 7.77388C183.972 7.77388 185.162 7.99248 186.279 8.45397C187.397 8.89117 188.368 9.54697 189.146 10.3485C189.971 11.1743 190.603 12.0973 191.04 13.1903C191.477 14.2833 191.72 15.4735 191.72 16.7608C191.744 18.0238 191.477 19.214 191.04 20.307Z" fill="white"/>
<path d="M56.0664 20.3798C56.1149 20.3798 56.1392 20.3312 56.1878 20.3312C57.4994 19.7725 58.471 18.9467 59.1753 17.878C59.8797 16.785 60.2198 15.522 60.2198 13.9918C60.2198 12.5102 59.8797 11.2228 59.1753 10.1541C58.471 9.06112 57.4508 8.25958 56.1878 7.65236C54.8762 7.04514 53.346 6.80225 51.5729 6.80225H42.9503V26.7921H47.6138V21.2056H51.67L55.5563 26.7921H60.5112L56.0664 20.3798ZM54.5119 16.5664C53.8075 17.1736 52.7145 17.4651 51.3057 17.4651H47.5895V10.5185H51.3057C52.7145 10.5185 53.7589 10.8099 54.5119 11.4171C55.2162 12.0244 55.6049 12.8745 55.6049 13.9918C55.5806 15.1091 55.2405 15.9835 54.5119 16.5664Z" fill="#146BFE"/>
<path d="M67.4093 18.4124H76.6149V14.7933H67.4093V10.4699H77.8779V6.72937H62.8187V26.7192H78.2422V23.003H67.3851V18.4124H67.4093Z" fill="#146BFE"/>
<path d="M80.6469 26.7435H85.3103V19.4325H94.5158V15.7163H85.3103V10.4213H95.7546V6.70508H80.6954V26.7678H80.6469V26.7435Z" fill="#146BFE"/>
<path d="M102.677 18.4124H112.004V14.7933H102.677V10.4699H113.145V6.72937H98.0863V26.7192H113.51V23.003H102.653V18.4124H102.677Z" fill="#146BFE"/>
<path d="M133.645 26.7435L129.176 20.2583C130.439 19.6997 131.411 18.8738 132.091 17.8294C132.795 16.7364 133.135 15.4491 133.135 13.9432C133.135 12.4373 132.795 11.1743 132.091 10.1055C131.386 9.01253 130.366 8.211 129.103 7.60378C127.792 6.99655 126.261 6.75366 124.488 6.75366H115.866V26.7435H120.481V21.157H124.464C124.585 21.157 124.683 21.157 124.804 21.157L128.69 26.792L133.645 26.7435ZM127.427 16.5664C126.723 17.1736 125.63 17.4651 124.221 17.4651H120.505V10.5184H124.221C125.63 10.5184 126.674 10.8099 127.427 11.4171C128.132 12.0244 128.52 12.8745 128.52 13.9918C128.52 15.0848 128.132 15.9349 127.427 16.5664Z" fill="#146BFE"/>
</svg>
